<svg xmlns="http://www.w3.org/2000/svg" width="320" height="320" viewBox="0 0 200 200"><path d="M80,54 Q100,44 128,58 Q126,110 76,182 Q66,120 80,54 Z" fill="#FB8C00" transform="rotate(20 100 110)" stroke="#4A3728" stroke-width="6" stroke-linejoin="round" stroke-linecap="round"/>
<path d="M104,52 Q92,20 100,10 Q112,30 110,50 M112,52 Q132,22 146,24 Q136,44 116,56 M100,54 Q70,30 60,38 Q76,54 98,60" fill="#43A047" stroke="#4A3728" stroke-width="4" stroke-linejoin="round" stroke-linecap="round"/>
<path d="M96,90 L110,92 M92,120 L104,122 M86,148 L96,150" stroke="#4A3728" stroke-width="4" stroke-linejoin="round" stroke-linecap="round"/></svg>