<svg xmlns="http://www.w3.org/2000/svg" width="450" height="360" viewBox="0 0 300 240"><rect x="8" y="8" width="284" height="224" rx="28" fill="#FFFDF7" stroke="#F5A623" stroke-width="12"/><rect x="8" y="8" width="284" height="224" rx="28" fill="none" stroke="#4A3728" stroke-width="4"/><g transform="translate(60 58) scale(0.5)"><path d="M100,56 Q140,30 168,70 Q186,130 140,172 Q120,184 100,172 Q80,184 60,172 Q14,130 32,70 Q60,30 100,56 Z" fill="#D32F2F" stroke="#4A3728" stroke-width="6" stroke-linejoin="round" stroke-linecap="round"/>
<path d="M100,56 Q98,34 110,18" fill="none" stroke="#4A3728" stroke-width="6" stroke-linejoin="round" stroke-linecap="round"/><path d="M108,34 Q134,14 152,30 Q130,50 108,34 Z" fill="#43A047" stroke="#4A3728" stroke-width="4" stroke-linejoin="round" stroke-linecap="round"/>
<ellipse cx="62" cy="86" rx="12" ry="20" fill="#fff" opacity="0.4" transform="rotate(20 62 86)"/></g><g transform="translate(130 50) scale(0.5)"><path d="M36,60 Q40,150 120,164 Q164,168 176,146 Q120,150 88,118 Q60,90 60,52 Z" fill="#FFD54F" stroke="#4A3728" stroke-width="6" stroke-linejoin="round" stroke-linecap="round"/>
<path d="M60,52 L58,34 L42,36 L36,60" fill="#8D6E63" stroke="#4A3728" stroke-width="4" stroke-linejoin="round" stroke-linecap="round"/><path d="M176,146 L186,150" stroke="#4A3728" stroke-width="6" stroke-linejoin="round" stroke-linecap="round"/></g><g transform="translate(180 60) scale(0.45)"><path d="M80,54 Q100,44 128,58 Q126,110 76,182 Q66,120 80,54 Z" fill="#FB8C00" transform="rotate(20 100 110)" stroke="#4A3728" stroke-width="6" stroke-linejoin="round" stroke-linecap="round"/>
<path d="M104,52 Q92,20 100,10 Q112,30 110,50 M112,52 Q132,22 146,24 Q136,44 116,56 M100,54 Q70,30 60,38 Q76,54 98,60" fill="#43A047" stroke="#4A3728" stroke-width="4" stroke-linejoin="round" stroke-linecap="round"/>
<path d="M96,90 L110,92 M92,120 L104,122 M86,148 L96,150" stroke="#4A3728" stroke-width="4" stroke-linejoin="round" stroke-linecap="round"/></g><path d="M50,140 L250,140 L226,216 L74,216 Z" fill="#C98B4F" stroke="#4A3728" stroke-width="6" stroke-linejoin="round" stroke-linecap="round"/><path d="M70,160 L230,160 M78,186 L222,186" stroke="#A0683A" stroke-width="6"/></svg>