<svg xmlns="http://www.w3.org/2000/svg" width="450" height="360" viewBox="0 0 300 240"><rect x="8" y="8" width="284" height="224" rx="28" fill="#FFFDF7" stroke="#C62828" stroke-width="12"/><rect x="8" y="8" width="284" height="224" rx="28" fill="none" stroke="#4A3728" stroke-width="4"/><g transform="translate(30 50) scale(0.62)">
<circle cx="96" cy="100" r="74" fill="#C62828" stroke="#4A3728" stroke-width="6" stroke-linejoin="round" stroke-linecap="round"/>
<path d="M30,76 Q96,118 166,76" fill="none" stroke="#FFF4E0" stroke-width="16" stroke-linecap="round"/>
<path d="M36,132 Q96,164 160,130" fill="none" stroke="#FFF4E0" stroke-width="12" stroke-linecap="round"/>
<ellipse cx="66" cy="60" rx="18" ry="11" fill="#FFFFFF" opacity="0.55" transform="rotate(-30 66 60)"/>
<circle cx="96" cy="100" r="74" fill="none" stroke="#4A3728" stroke-width="6" stroke-linejoin="round" stroke-linecap="round"/><circle cx="164" cy="164" r="30" fill="#FFF4E0" stroke="#4A3728" stroke-width="4" stroke-linejoin="round" stroke-linecap="round"/><circle cx="164" cy="165" r="15" fill="#C62828" stroke="#4A3728" stroke-width="4" stroke-linejoin="round" stroke-linecap="round"/></g><g transform="translate(150 60) scale(0.6)">
<path d="M40,64 L78,30 L168,30 L130,64 Z" fill="#5C8FD6" stroke="#4A3728" stroke-width="6" stroke-linejoin="round" stroke-linecap="round"/>
<path d="M130,64 L168,30 L168,130 L130,166 Z" fill="#123C73" stroke="#4A3728" stroke-width="6" stroke-linejoin="round" stroke-linecap="round"/>
<rect x="40" y="64" width="90" height="102" rx="6" fill="#1E5AA8" stroke="#4A3728" stroke-width="6" stroke-linejoin="round" stroke-linecap="round"/>
<rect x="56" y="80" width="58" height="70" rx="10" fill="none" stroke="#FFF4E0" stroke-width="7" opacity="0.8"/><circle cx="164" cy="164" r="30" fill="#FFF4E0" stroke="#4A3728" stroke-width="4" stroke-linejoin="round" stroke-linecap="round"/><rect x="151.25" y="152.25" width="25.5" height="25.5" rx="3.0" fill="#1E5AA8" stroke="#4A3728" stroke-width="4" stroke-linejoin="round" stroke-linecap="round"/></g></svg>